<?xml version="1.0" standalone="no"?>
<!DOCTYPE svg PUBLIC "-//W3C//DTD SVG 20010904//EN"
 "http://www.w3.org/TR/2001/REC-SVG-20010904/DTD/svg10.dtd">
<svg version="1.0" xmlns="http://www.w3.org/2000/svg"
 width="640.000000pt" height="640.000000pt" viewBox="0 0 640.000000 640.000000"
 preserveAspectRatio="xMidYMid meet">
<metadata>
Created by potrace 1.15, written by Peter Selinger 2001-2017
</metadata>
<g transform="translate(0.000000,640.000000) scale(0.100000,-0.100000)"
fill="#000000" stroke="none">
<path d="M3543 4952 c1 -22 0 -39 -3 -37 -3 2 -10 -8 -17 -21 -8 -17 -8 -26
-1 -31 6 -3 8 -1 5 4 -4 6 -1 13 6 16 8 3 12 -7 11 -32 0 -20 2 -40 4 -45 3
-5 6 -22 6 -37 1 -30 -9 -26 -17 6 -2 11 -4 3 -4 -18 0 -35 16 -64 18 -35 1 7
5 -9 11 -37 16 -87 16 -96 4 -92 -8 3 -10 -7 -7 -32 l5 -36 7 30 7 30 1 -30
c1 -16 4 -41 8 -54 4 -17 3 -22 -5 -17 -15 9 -16 -24 -1 -44 9 -12 10 -11 4 5
-4 13 -3 17 4 10 5 -5 13 -25 16 -44 5 -29 3 -33 -12 -27 -17 6 -17 5 0 -8 9
-7 17 -24 16 -37 l-1 -24 -8 25 c-7 21 -8 18 -7 -17 0 -37 2 -40 13 -25 11 14
12 11 7 -20 -3 -22 0 -38 6 -38 14 0 23 -34 14 -55 -6 -18 -7 -18 -14 1 -6 15
-8 12 -8 -13 -1 -25 3 -33 17 -33 13 0 14 -2 4 -9 -8 -5 -12 -25 -11 -54 3
-45 13 -61 22 -34 2 6 7 -15 11 -47 7 -50 5 -62 -9 -72 -11 -8 -13 -14 -5 -19
6 -4 9 -13 6 -20 -2 -7 -1 -26 4 -42 7 -23 8 -20 6 20 -2 26 0 47 4 47 4 0 7
-20 8 -45 0 -32 -5 -48 -16 -55 -11 -6 -12 -9 -4 -10 8 0 10 -5 6 -12 -5 -8
-2 -8 10 1 15 12 17 12 14 0 -2 -8 -10 -20 -18 -27 -8 -8 -10 -11 -3 -8 6 4
14 2 18 -4 3 -5 2 -10 -4 -10 -6 0 -16 -10 -22 -22 -6 -13 -8 -20 -4 -16 4 4
14 0 21 -10 17 -21 18 -36 2 -26 -7 4 -8 3 -4 -5 4 -6 12 -9 17 -6 13 9 11 -9
-3 -24 -11 -11 -10 -12 1 -6 16 9 30 -11 24 -35 -4 -13 -13 -17 -36 -15 -18 2
-66 7 -107 10 -41 3 -93 11 -115 17 -38 10 -56 11 -135 8 -38 -1 -240 7 -360
15 -41 2 -111 5 -155 6 -67 1 -75 2 -47 10 39 12 43 22 5 12 -16 -3 -37 -6
-48 -5 -16 1 -17 -1 -5 -8 10 -7 -9 -10 -60 -10 -43 0 -69 4 -62 8 8 6 -4 9
-30 9 -39 1 -40 0 -13 -7 28 -7 29 -8 5 -10 -14 -1 -123 -3 -242 -6 -155 -2
-219 0 -224 8 -5 8 3 9 27 5 29 -5 31 -4 12 5 -25 12 -58 4 -48 -12 4 -7 -8
-10 -32 -10 -21 1 -45 1 -53 0 -8 0 -42 0 -75 1 -94 2 -283 -10 -355 -23 -36
-6 -77 -12 -92 -12 -14 -1 -26 -3 -26 -6 2 -21 -5 -27 -28 -22 -19 3 -25 1
-20 -7 4 -6 12 -9 17 -6 14 9 11 -5 -5 -20 -7 -8 -17 -11 -22 -7 -5 4 0 -3 10
-15 11 -13 15 -23 10 -24 -118 -8 -140 -6 -164 10 -14 10 -31 16 -37 14 -8 -3
-13 3 -13 14 0 14 2 15 9 4 6 -9 11 -10 15 -2 4 6 1 12 -6 12 -34 3 -78 20
-78 29 0 5 -10 10 -23 12 -12 2 -21 9 -19 16 1 6 -5 12 -14 12 -9 0 -12 -5 -8
-12 4 -7 3 -8 -5 -4 -6 4 -9 12 -6 17 4 5 1 9 -4 9 -6 0 -11 -11 -11 -25 0
-14 5 -25 10 -25 6 0 10 -4 10 -10 0 -5 -9 -10 -20 -10 -13 0 -20 -6 -19 -17
0 -11 3 -13 6 -5 9 22 20 13 18 -15 -3 -42 -4 -45 -15 -38 -6 4 -8 11 -5 16 8
12 -28 -2 -37 -15 -5 -8 -8 -7 -8 1 0 9 -18 12 -59 11 -33 -1 -58 -5 -56 -9 3
-3 -19 -10 -48 -13 -28 -4 -73 -18 -99 -31 -25 -13 -50 -20 -54 -17 -5 4 -2
-1 5 -11 13 -16 12 -18 -12 -13 -33 6 -34 0 -2 -30 16 -15 20 -24 12 -27 -9
-4 -9 -6 0 -6 7 -1 18 8 25 18 9 14 16 17 24 10 9 -7 19 -7 32 0 33 17 36 -15
4 -38 -23 -17 -25 -22 -13 -33 10 -9 12 -9 7 0 -13 22 3 12 20 -12 12 -20 13
-29 4 -43 -10 -16 -11 -16 -6 0 3 9 1 17 -4 17 -14 0 -8 -63 7 -78 8 -8 11
-17 8 -20 -3 -4 -10 0 -15 8 -7 11 -9 8 -8 -12 2 -20 5 -24 14 -17 9 8 11 5 7
-10 -3 -12 -8 -19 -12 -16 -4 2 -8 -15 -8 -37 -1 -41 0 -41 14 -17 l14 24 -6
-30 c-8 -37 -8 -34 -5 -70 2 -30 2 -30 10 -5 8 24 8 24 9 3 1 -28 -2 -39 -10
-36 -12 4 -15 -41 -7 -76 5 -18 11 -31 13 -29 3 2 1 19 -4 36 -6 20 -6 32 0
32 5 0 9 -9 9 -21 0 -11 5 -29 10 -40 8 -13 7 -19 0 -19 -7 0 -7 -7 1 -22 10
-20 10 -21 -2 -11 -12 9 -14 4 -16 -30 -1 -34 0 -37 7 -17 9 27 8 33 14 -77 1
-21 -3 -33 -11 -33 -7 0 -13 -8 -13 -17 0 -14 2 -15 9 -5 7 11 10 10 15 -3 8
-23 8 -27 -4 -20 -6 4 -9 -10 -8 -38 2 -25 6 -43 11 -40 4 2 4 10 1 16 -4 7
-1 7 7 -1 12 -11 11 -15 -5 -28 -17 -12 -18 -14 -3 -14 10 0 17 -8 17 -17 0
-15 -2 -16 -10 -3 -8 12 -10 11 -10 -7 0 -16 6 -23 19 -23 11 0 23 -4 26 -10
3 -6 -1 -7 -9 -4 -10 4 -16 1 -16 -7 0 -11 -3 -11 -10 1 -8 12 -10 10 -10 -8
0 -13 4 -21 9 -18 5 3 12 -1 15 -10 8 -22 8 -24 -6 -21 -8 1 -13 -9 -14 -23 0
-29 -12 -52 -23 -46 -4 3 -8 -4 -8 -15 -1 -13 5 -19 18 -19 23 0 49 -22 49
-42 0 -10 -3 -9 -10 2 -7 11 -9 4 -9 -25 1 -33 2 -36 8 -15 7 24 7 24 14 -9 4
-18 6 -45 6 -60 -1 -22 -3 -21 -10 9 -12 53 1 -110 16 -210 l14 -85 -5 70 c-3
39 -7 90 -9 115 -7 76 5 21 18 -88 9 -63 10 -105 4 -109 -5 -3 -3 -9 4 -14 10
-6 11 -9 2 -9 -16 0 -17 -36 -3 -45 6 -4 8 -16 5 -28 -5 -19 -5 -20 5 -5 8 13
8 24 0 37 -5 11 -6 22 -2 25 9 5 13 -11 13 -55 0 -25 3 -27 37 -25 l37 1 -3
82 c-4 103 -7 119 -21 116 -6 -2 -11 4 -11 13 0 8 5 12 10 9 6 -3 10 1 10 9 0
9 -7 16 -15 16 -8 0 -15 5 -15 11 0 5 4 8 9 4 5 -3 12 -1 15 4 4 5 -2 12 -12
15 -18 6 -23 49 -7 63 4 5 5 3 2 -3 -4 -7 2 -14 13 -17 11 -3 18 -1 14 4 -7
11 -6 11 34 -1 31 -8 32 -8 20 7 -7 10 -8 14 -1 10 6 -4 13 -2 15 5 3 8 11 9
24 3 10 -4 23 -9 28 -9 14 -1 20 -26 6 -26 -6 0 -8 5 -4 12 4 7 3 8 -5 4 -16
-10 -2 -29 16 -22 8 3 24 0 36 -7 12 -6 49 -13 82 -14 33 -1 88 -4 122 -7 35
-2 65 0 68 5 4 5 17 6 31 3 20 -5 26 -2 31 15 3 11 12 21 21 21 12 0 13 -3 4
-12 -7 -7 -12 -16 -12 -21 0 -5 10 2 21 17 15 20 28 26 43 22 11 -2 29 1 39 8
11 9 39 12 77 10 33 -1 60 1 60 7 0 10 44 6 73 -6 10 -4 21 -5 24 -1 4 3 -1 6
-11 6 -10 0 -14 5 -10 12 4 7 3 8 -4 4 -14 -8 -15 3 -3 22 6 10 10 10 21 -3
13 -16 55 -21 64 -7 3 5 -9 7 -27 5 -26 -3 -28 -1 -12 6 11 5 32 10 48 10 15
1 27 5 27 10 0 6 8 10 18 10 65 -1 167 12 174 23 5 9 8 7 9 -7 1 -11 1 -24 0
-28 -1 -5 3 -6 9 -2 6 3 8 11 5 16 -4 5 -1 9 5 9 7 0 9 9 6 23 -3 12 -3 16 0
9 3 -6 9 -10 13 -8 10 7 7 -26 -4 -44 -8 -13 -6 -13 8 -1 9 7 14 17 11 22 -3
5 -1 9 5 9 5 0 13 -4 16 -10 3 -5 12 -10 18 -10 8 0 8 3 -1 9 -11 7 -11 9 0
13 21 7 63 -7 60 -21 -1 -7 2 -10 8 -6 6 3 8 11 5 16 -4 5 -3 9 2 10 4 0 16 2
26 4 9 2 15 -1 11 -6 -3 -5 7 -9 23 -8 25 0 26 1 8 10 -15 6 -11 7 17 4 31 -4
40 0 57 21 12 15 21 22 21 16 0 -6 -8 -18 -17 -28 -16 -16 -15 -17 17 -10 19
3 63 6 97 7 35 0 68 5 75 12 11 11 33 15 41 7 7 -9 77 -5 77 3 0 7 4 7 12 -1
13 -13 32 -17 24 -4 -6 10 56 8 72 -2 7 -4 10 -11 8 -15 -3 -4 5 -8 17 -8 16
-2 18 0 8 6 -18 11 17 23 79 27 25 2 45 3 45 4 0 1 22 3 49 5 27 2 53 10 57
17 8 12 13 4 10 -15 -1 -5 4 -5 11 -1 7 5 29 9 48 10 19 0 37 2 40 3 5 3 30 6
114 14 21 2 42 10 47 18 7 11 9 10 10 -6 1 -11 1 -22 1 -25 0 -3 8 -6 19 -6
18 0 18 2 5 12 -26 18 -5 25 23 7 l26 -16 -20 23 -20 23 21 -11 c12 -6 24 -8
28 -5 5 5 10 -9 8 -27 0 -3 9 -7 20 -7 20 -2 20 -1 2 13 -15 11 -15 13 -3 8
10 -3 20 -1 24 5 3 6 15 11 26 11 12 0 17 -4 13 -11 -5 -8 -1 -8 13 0 11 6 24
7 28 3 4 -4 4 4 1 18 -6 20 -5 22 4 8 6 -9 17 -15 25 -12 8 4 15 2 15 -3 0
-12 33 -13 41 -1 3 5 9 3 11 -4 4 -9 -3 -15 -20 -16 -14 -1 -28 -5 -31 -8 -8
-8 52 -1 64 8 6 4 22 9 36 11 24 5 25 3 23 -39 -2 -27 1 -42 7 -39 5 4 8 9 5
13 -2 4 0 16 5 27 7 18 8 17 7 -5 -1 -14 1 -32 3 -40 3 -10 -2 -14 -13 -12
-11 2 -18 -3 -18 -13 0 -8 -5 -15 -11 -15 -6 0 -4 -7 5 -15 8 -8 21 -15 29
-15 12 0 13 -7 7 -35 -4 -19 -6 -35 -3 -35 3 0 -1 -8 -8 -17 -9 -11 -10 -14
-2 -9 9 5 11 2 7 -9 -4 -8 -2 -21 4 -28 11 -14 -2 -57 -17 -57 -6 0 -13 -23
-17 -51 -4 -33 -10 -46 -15 -37 -5 7 -9 8 -9 2 0 -6 10 -19 21 -30 16 -14 23
-16 26 -6 4 10 8 10 19 1 18 -15 18 -24 -2 -43 -18 -19 -38 -21 -28 -3 4 6 3
9 -1 4 -15 -13 -12 -44 3 -43 8 1 17 -6 19 -14 4 -13 3 -13 -6 0 -8 11 -11 12
-11 2 0 -7 -7 -20 -15 -29 -8 -8 -12 -20 -8 -26 4 -7 -1 -6 -10 2 -15 12 -17
11 -17 -3 0 -10 -4 -15 -9 -11 -5 3 -13 0 -17 -6 -4 -8 -3 -9 4 -5 7 4 12 2
12 -4 0 -6 6 -8 13 -4 10 6 10 4 0 -7 -21 -21 -16 -38 10 -32 21 5 21 5 3 -9
-13 -10 -15 -15 -5 -16 25 -2 48 -8 55 -14 3 -4 13 -4 22 -1 12 4 11 1 -3 -10
-11 -9 -15 -17 -7 -17 6 0 12 -5 12 -11 0 -5 -5 -7 -11 -3 -7 4 -10 1 -7 -7 3
-8 11 -13 17 -11 7 1 10 -2 7 -7 -4 -5 0 -12 6 -14 10 -4 10 -6 1 -6 -7 -1
-13 -6 -13 -12 0 -5 5 -7 10 -4 6 3 10 1 10 -4 0 -14 -27 -14 -35 -1 -3 6 -19
10 -36 10 -22 0 -29 -5 -29 -20 0 -11 5 -20 10 -20 6 0 10 -7 10 -15 0 -9 -6
-12 -17 -9 -14 4 -15 3 -5 -4 8 -5 14 -13 15 -18 1 -5 8 -8 15 -6 9 2 11 -1 6
-9 -5 -9 -2 -10 9 -6 16 6 23 -14 18 -45 0 -5 3 -8 8 -8 4 0 8 -29 7 -64 -1
-47 2 -62 12 -59 8 4 12 -5 12 -23 -1 -33 -25 -73 -32 -52 -3 9 -9 7 -21 -7
-10 -11 -18 -24 -18 -30 0 -5 -6 -16 -11 -23 -8 -10 -7 -17 7 -30 10 -9 15
-12 12 -7 -3 6 8 9 26 9 18 -1 31 -7 30 -12 -2 -6 4 -9 12 -6 8 4 15 9 16 13
3 24 9 44 15 49 4 4 4 -1 1 -10 -4 -10 -2 -18 3 -18 6 0 10 8 10 18 0 24 36
62 60 62 10 0 21 9 25 20 5 15 12 18 36 13 19 -4 29 -1 29 7 0 7 7 10 16 6 9
-3 12 -2 9 4 -9 15 57 2 68 -13 5 -7 7 -2 4 15 -2 15 1 29 7 31 7 3 6 9 -3 18
-9 9 -11 9 -7 2 12 -21 -8 -15 -21 7 -11 17 -10 18 5 13 15 -6 15 -5 3 10 -7
9 -18 14 -25 10 -6 -3 -2 5 10 18 12 13 24 32 28 43 5 16 9 16 23 5 15 -12 16
-12 10 5 -5 14 -3 17 8 13 8 -4 17 -1 21 5 4 7 3 8 -4 4 -16 -10 -15 5 2 27 9
12 16 14 21 8 3 -6 1 -11 -6 -11 -7 0 -9 -3 -5 -7 8 -9 86 67 86 84 0 7 9 17
20 23 15 8 20 8 20 -2 0 -9 3 -9 10 2 5 8 12 11 16 7 4 -3 1 -15 -7 -24 -12
-16 -12 -17 2 -6 9 7 19 9 23 5 4 -4 6 0 4 8 -2 10 4 15 18 14 11 0 21 6 21
13 0 7 -11 13 -24 13 -12 0 -23 4 -23 10 0 5 8 7 18 3 16 -5 16 -5 0 8 -16 13
-15 16 11 49 27 32 31 34 54 21 14 -7 31 -11 39 -8 7 3 4 6 -8 6 -21 1 -35 19
-33 44 0 7 4 2 9 -10 5 -13 17 -23 25 -23 9 0 14 4 11 9 -3 4 6 7 19 5 28 -3
32 8 10 26 -8 7 -12 16 -9 21 3 5 0 9 -7 9 -10 0 -10 3 -1 12 9 9 20 8 50 -4
l38 -15 2 29 c2 18 -3 31 -13 34 -12 5 -13 9 -4 20 10 12 8 13 -7 7 -16 -6
-17 -5 -4 9 14 16 16 16 28 0 6 -8 12 -23 12 -31 0 -14 1 -14 10 -1 5 8 10 10
10 5 0 -6 -6 -17 -12 -24 -10 -11 -10 -13 0 -7 6 4 12 2 12 -4 0 -7 7 -10 15
-6 11 4 15 -1 15 -19 0 -30 17 -32 40 -5 16 18 18 19 24 4 5 -12 15 -15 38
-12 27 4 29 3 13 -8 -16 -12 -16 -13 3 -11 11 0 20 4 20 7 -2 20 4 30 13 24 7
-4 10 -1 7 7 -3 8 -10 13 -16 12 -5 -1 -12 7 -15 18 -5 17 -3 18 10 7 14 -12
15 -11 5 9 -7 12 -17 25 -24 29 -7 4 -8 3 -4 -4 15 -25 -1 -10 -24 21 l-23 32
23 -20 24 -20 -23 33 c-12 18 -26 30 -31 27 -4 -3 -14 3 -21 12 -12 14 -12 16
0 8 11 -6 13 -4 8 9 -4 10 -7 20 -7 22 0 3 -6 2 -12 -2 -10 -6 -10 -5 -1 7 8
10 26 13 59 11 26 -3 41 -8 34 -12 -8 -5 -7 -9 6 -14 10 -4 15 -4 12 0 -10 10
11 46 22 39 6 -3 7 1 3 10 -5 13 -7 14 -14 3 -6 -9 -9 -4 -9 15 0 15 -4 27
-10 27 -5 0 -10 5 -10 11 0 5 3 8 8 5 4 -2 16 2 27 10 18 13 16 14 -15 8 -19
-4 -32 -4 -29 0 4 4 16 8 28 11 32 6 43 15 33 28 -8 11 19 48 33 47 3 -1 22
13 43 30 20 16 32 30 26 30 -6 0 -21 -11 -34 -25 -13 -14 -27 -25 -30 -25 -4
0 13 20 38 45 50 50 54 53 45 28 -3 -10 3 -6 15 9 12 14 22 30 22 34 0 4 -7
-1 -15 -12 -8 -10 -15 -14 -15 -8 0 16 21 33 35 28 7 -3 16 0 21 7 5 8 3 10
-6 4 -8 -5 -11 -4 -7 2 9 14 57 23 58 12 1 -5 2 -14 3 -21 0 -6 8 -13 16 -15
12 -4 12 -3 2 5 -11 7 -9 10 7 15 12 3 21 1 21 -5 0 -6 11 -8 25 -6 13 3 22 1
19 -3 -6 -10 17 -12 40 -3 20 8 21 54 2 54 -8 0 -17 -6 -19 -12 -3 -7 -6 -8
-6 -2 -1 5 6 19 15 30 8 10 13 13 9 7 -3 -7 -1 -13 4 -13 20 0 11 18 -30 58
l-40 41 23 12 c19 9 21 9 11 -2 -7 -7 -13 -18 -13 -23 1 -13 23 24 26 42 3 17
35 42 49 39 6 -2 20 7 32 19 19 20 19 23 5 28 -19 6 64 -1 88 -7 8 -2 27 -10
42 -17 36 -17 62 -7 49 19 -9 16 -8 18 12 15 12 -2 16 -2 10 2 -7 3 -13 12
-13 20 0 9 -4 12 -10 9 -5 -3 -10 0 -10 8 0 7 -8 22 -18 33 -33 35 -7 93 43
94 17 0 17 2 5 10 -12 8 -12 10 5 10 11 0 29 13 39 28 l19 27 -24 -22 c-35
-32 -43 -29 -13 5 110 117 134 136 149 112 3 -5 14 -14 25 -20 16 -8 18 -6 15
15 -1 14 1 28 6 31 4 2 6 11 3 19 -4 8 -10 13 -14 10 -4 -3 -11 2 -14 10 -4
11 0 15 11 13 10 -2 19 5 21 16 3 13 0 16 -9 11 -8 -5 -10 -4 -5 3 5 8 13 9
24 2 24 -13 70 -53 52 -44 -8 4 -23 14 -32 22 -10 8 -18 11 -18 6 0 -5 13 -17
28 -26 25 -15 31 -15 50 -3 16 12 22 12 26 2 3 -6 5 -3 3 8 -1 11 -8 20 -14
20 -7 0 -18 6 -25 14 -11 12 -11 13 2 6 9 -6 7 3 -7 28 -15 25 -18 39 -11 43
7 5 8 2 3 -7 -7 -11 -6 -11 9 1 17 13 17 14 -1 21 -14 6 -13 8 10 8 15 1 27 5
27 11 0 5 -7 7 -15 4 -21 -9 -19 1 9 30 24 27 42 35 30 14 -4 -7 2 -5 14 6 18
15 19 22 10 40 -22 42 -40 56 -66 49 -18 -4 -23 -3 -18 6 4 6 4 11 -1 10 -21
-4 -33 2 -33 17 0 9 -5 12 -12 8 -8 -5 -9 -2 -5 9 4 11 -1 20 -16 27 -21 11
-21 11 -3 -4 26 -21 7 -21 -22 0 -13 9 -21 22 -18 30 3 7 0 16 -6 20 -6 4 -9
3 -5 -2 3 -5 -1 -18 -10 -29 -14 -19 -14 -19 -13 10 3 45 2 47 -24 30 -20 -13
-24 -14 -29 -1 -4 10 0 12 14 9 24 -7 25 5 2 24 -11 9 -12 12 -3 7 8 -4 11 -3
7 1 -22 24 -44 8 -38 -27 0 -5 -4 -8 -10 -8 -7 0 -9 9 -5 24 4 15 0 28 -9 36
-9 7 -13 20 -10 29 3 11 -7 28 -26 47 -18 16 -29 23 -25 17 4 -7 2 -13 -5 -13
-8 0 -8 -4 -1 -13 8 -10 6 -13 -8 -13 -15 0 -16 4 -9 18 7 14 6 20 -6 24 -8 3
-12 10 -9 15 3 5 11 6 17 2 7 -4 6 1 -2 10 -11 14 -17 15 -28 5 -11 -9 -16 -9
-23 2 -5 8 -6 18 -3 23 8 13 -37 56 -52 51 -7 -3 -16 -1 -20 5 -3 6 0 11 7 11
12 0 -13 17 -57 39 -12 6 -15 10 -6 10 8 1 22 -5 31 -11 9 -7 0 2 -19 19 -20
18 -43 33 -51 33 -9 0 -23 9 -33 20 -9 11 -12 20 -7 20 6 0 13 -7 16 -15 4 -8
11 -15 17 -15 5 0 2 9 -8 20 -10 11 -25 18 -34 15 -15 -4 -50 24 -91 71 -13
16 -13 17 3 11 25 -9 21 6 -10 34 -14 13 -22 17 -18 9 6 -9 -3 -7 -25 7 -19
12 -36 28 -38 35 -2 8 0 9 5 3 4 -5 17 -17 28 -24 11 -8 -2 8 -30 37 -27 29
-55 52 -63 52 -7 0 -10 5 -6 12 4 6 3 8 -4 4 -12 -7 -62 13 -62 26 0 13 12 10
34 -9 21 -18 21 -18 3 3 -10 12 -31 24 -48 28 -16 3 -29 10 -29 16 0 7 7 7 23
0 20 -10 21 -10 4 3 -10 8 -28 13 -40 10 -15 -3 -18 -2 -9 4 9 7 6 13 -14 21
-16 8 -24 18 -20 27 8 21 -27 38 -45 22 -7 -7 -11 -8 -7 -3 8 10 1 18 -60 65
-24 18 -40 36 -37 39 9 9 -97 102 -116 102 -9 0 -23 7 -30 16 -7 9 -22 20 -34
24 -14 6 -16 9 -4 9 9 1 24 -8 34 -19 10 -11 22 -20 27 -20 5 0 -7 14 -26 31
-20 17 -40 28 -45 25 -5 -4 -13 -1 -17 5 -5 8 -3 9 7 4 8 -5 5 1 -5 13 -20 23
-32 30 -21 12 3 -6 -10 -1 -29 11 -20 12 -36 25 -36 31 0 5 5 6 12 2 7 -4 8
-3 4 4 -4 7 -15 12 -24 12 -9 0 -24 5 -32 11 -12 8 -9 9 10 5 19 -5 18 -2 -7
9 -18 8 -48 30 -66 49 -19 19 -38 32 -42 28 -4 -4 -3 3 3 15 10 18 9 20 -7 16
-20 -5 -63 25 -55 39 3 4 -3 5 -13 1 -16 -6 -17 -5 -3 12 8 10 10 16 3 12 -17
-11 -62 15 -98 54 -24 28 -25 30 -5 14 l25 -20 -24 28 c-24 27 -38 36 -26 17
3 -5 1 -10 -4 -10 -6 0 -11 5 -11 11 0 5 -4 8 -8 5 -4 -2 -14 -1 -22 5 -12 7
-9 9 10 10 17 1 20 3 7 6 -9 2 -15 8 -12 13 3 5 0 12 -6 16 -7 4 -9 3 -5 -4
16 -27 -19 -20 -57 11 -45 36 -107 54 -107 30 0 -7 9 -13 21 -13 15 0 19 -5
15 -16 -3 -8 -2 -13 3 -10 12 8 33 -19 23 -28 -4 -4 -2 -7 3 -6 23 5 46 -1 40
-10 -4 -6 -10 -8 -15 -5 -5 3 -11 1 -15 -4 -3 -6 4 -8 16 -6 15 3 19 0 15 -10
-4 -11 2 -15 22 -15 19 0 23 -3 14 -9 -10 -6 -8 -10 8 -14 13 -3 19 -10 15
-17 -5 -8 -11 -7 -23 2 -14 10 -13 8 1 -9 12 -13 26 -19 40 -16 18 4 19 3 7
-6 -8 -6 -10 -11 -4 -11 7 0 14 -10 17 -22 6 -23 6 -23 -10 -3 -14 18 -15 18
-9 2 3 -10 6 -25 6 -33 0 -7 6 -11 14 -8 16 6 40 -31 31 -46 -3 -6 1 -10 9
-10 15 0 20 -11 14 -26 -5 -11 52 -35 65 -28 7 5 7 1 -2 -10 -11 -13 -11 -20
-3 -28 9 -9 12 -8 12 5 0 27 15 20 16 -8 2 -26 2 -26 -25 -9 -32 21 -105 94
-94 94 4 0 -5 7 -21 15 -15 8 -33 12 -39 8 -6 -4 -7 -1 -3 6 5 7 15 10 25 6 9
-3 0 10 -18 29 -35 36 -48 45 -36 26 3 -5 -2 -10 -11 -10 -10 0 -15 3 -11 6 3
4 -2 14 -11 23 -10 9 -12 12 -5 7 25 -17 21 -1 -5 18 -14 11 -23 15 -20 10 3
-5 -1 -15 -9 -23 -13 -12 -15 -11 -10 5 6 20 -9 32 -130 114 -47 32 -75 70
-52 70 5 0 9 -7 9 -15 0 -16 47 -51 56 -42 3 3 -4 8 -16 12 -27 8 -40 43 -40
104 0 28 -6 55 -16 67 -15 18 -15 18 -5 -3 6 -12 10 -43 10 -70 l-2 -48 -8 60
c-5 33 -10 69 -11 80 -2 11 -10 20 -18 20 -8 0 -15 5 -15 12 0 6 -3 14 -7 18
-3 3 -5 -12 -5 -33z m261 -895 c2 -10 9 -16 14 -13 5 3 16 -2 23 -11 12 -14
12 -16 -1 -8 -21 13 -50 14 -57 2 -3 -6 -1 -7 4 -4 6 4 13 1 16 -7 4 -9 18
-12 41 -11 20 2 36 -1 36 -6 0 -6 -4 -8 -9 -5 -4 3 -16 0 -26 -8 -15 -11 -13
-12 19 -10 35 3 45 -11 21 -28 -5 -4 -2 -10 8 -14 9 -3 17 -10 17 -16 0 -5 -5
-6 -12 -2 -7 5 -8 3 -3 -5 4 -8 21 -11 40 -9 19 2 31 0 29 -4 -3 -4 0 -8 5 -8
6 0 11 5 11 12 0 6 3 8 6 5 4 -4 1 -14 -6 -22 -10 -11 -15 -13 -20 -4 -6 8 -9
8 -14 0 -4 -6 -1 -11 6 -11 10 0 9 -3 -2 -11 -12 -9 -11 -9 5 -4 32 12 66 14
59 4 -3 -5 2 -9 10 -9 9 0 16 -4 16 -10 0 -5 -6 -10 -12 -10 -9 0 -9 -3 1 -9
8 -5 11 -16 7 -26 -7 -21 12 -48 27 -38 6 4 8 0 4 -10 -9 -23 -2 -21 22 4 l19
20 21 -22 c11 -12 18 -25 16 -29 -3 -4 3 -10 14 -13 10 -2 21 -17 24 -36 4
-17 11 -31 16 -31 6 0 8 8 5 18 -5 14 -4 14 4 2 6 -8 9 -17 6 -21 -2 -4 4 -10
13 -12 13 -3 12 -5 -5 -6 -18 -1 -23 -6 -20 -23 2 -13 10 -23 18 -24 8 -1 22
-2 31 -2 9 -1 20 -14 24 -29 l7 -28 25 30 c16 20 21 23 14 8 -14 -27 -14 -63
-1 -63 6 0 10 -6 10 -14 0 -9 7 -13 19 -11 14 3 18 -1 14 -11 -4 -10 0 -12 11
-8 15 6 20 -5 19 -43 -1 -7 3 -10 8 -7 5 3 9 0 9 -5 0 -6 8 -12 18 -12 16 -1
16 -2 0 -6 -10 -2 -18 -9 -18 -14 0 -14 -26 -11 -40 6 -9 11 -9 15 -1 15 7 0
9 5 6 10 -4 6 -10 8 -15 5 -4 -3 -14 3 -21 12 -12 14 -12 16 0 8 10 -6 12 -4
6 4 -4 7 -16 11 -26 8 -12 -3 -19 0 -19 9 0 8 -6 17 -14 20 -8 3 -17 13 -20
21 -6 14 -4 14 11 2 17 -12 17 -12 1 5 -9 11 -30 19 -46 20 -23 1 -28 4 -20
14 9 10 14 10 27 0 11 -9 10 -6 -3 9 -10 12 -23 21 -29 20 -6 -1 -11 3 -12 8
-1 18 -16 35 -25 30 -5 -3 -18 3 -30 15 -11 11 -23 20 -27 20 -5 0 -17 12 -27
27 -12 17 -14 23 -5 19 8 -5 -12 17 -43 48 -54 52 -71 61 -107 56 -10 -1 -12
6 -9 25 3 14 1 28 -5 32 -6 3 -7 1 -3 -5 8 -14 5 -15 -19 -6 -13 5 -14 9 -4
15 10 6 10 11 0 23 -8 9 -18 16 -24 16 -6 0 -2 -7 9 -16 18 -15 17 -15 -6 -1
-14 8 -25 19 -25 26 0 6 -17 22 -38 36 -21 15 -36 20 -35 13 2 -7 -4 -11 -12
-9 -8 2 -20 4 -27 4 -7 0 -10 4 -7 9 4 5 12 7 20 4 11 -4 11 0 -2 19 -18 28
-26 33 -18 11 3 -8 1 -17 -4 -20 -6 -4 -9 5 -7 21 1 15 7 29 12 30 6 2 8 16 5
31 l-6 27 -6 -25 -6 -25 -6 27 c-3 15 -2 25 3 23 4 -3 10 -1 14 4 3 6 13 8 23
5 15 -5 15 -5 -1 6 -9 6 -23 8 -30 4 -8 -5 -9 -4 -2 4 26 27 79 15 89 -21z
m970 -153 c4 -12 1 -14 -14 -9 -11 4 -20 2 -20 -4 0 -6 3 -10 8 -9 12 3 82
-23 82 -31 0 -4 -9 -7 -20 -7 -11 0 -20 5 -20 10 0 5 -2 7 -5 4 -3 -3 -2 -13
1 -22 5 -13 9 -15 15 -5 6 10 11 10 25 -2 10 -8 15 -9 11 -2 -4 6 -3 14 2 17
9 6 27 -31 23 -46 -1 -5 5 -8 14 -8 8 0 12 5 9 10 -3 6 -1 10 5 10 6 0 8 -11
6 -25 -4 -19 0 -25 14 -25 10 0 26 -9 34 -21 8 -13 20 -18 28 -14 7 3 5 0 -4
-8 -21 -17 -23 -29 -5 -26 22 3 37 -1 37 -10 0 -4 -11 -6 -25 -3 -25 4 -35
-11 -15 -23 6 -3 10 -15 10 -25 0 -10 5 -20 11 -22 7 -2 5 -9 -5 -17 -14 -12
-16 -12 -10 3 6 14 -5 21 -28 17 -4 0 -5 6 -2 14 4 9 0 15 -9 15 -10 0 -15 8
-14 21 1 19 2 19 14 3 7 -10 13 -13 13 -7 0 16 -28 36 -40 28 -5 -3 -13 2 -17
12 -3 10 -13 27 -22 37 -9 11 -10 16 -3 12 6 -4 12 -3 12 2 0 5 -12 14 -27 21
-22 10 -24 14 -12 22 11 7 10 9 -6 10 -11 1 -23 1 -28 0 -4 -1 -12 10 -17 23
-5 13 -17 30 -28 37 -17 13 -40 55 -24 45 4 -2 14 -1 22 5 19 11 17 12 24 -7z
m-1980 -355 c-9 -16 3 -10 17 8 10 11 10 14 2 9 -7 -4 -13 -3 -13 1 0 10 98 9
123 -2 10 -4 21 -5 24 -1 3 3 11 1 18 -4 7 -6 23 -6 43 0 18 5 32 5 32 0 0 -4
35 -7 79 -7 l78 2 -4 -32 c-3 -19 0 -33 6 -33 6 0 8 -7 4 -16 -5 -13 -2 -15
15 -10 12 4 23 2 28 -5 5 -8 2 -10 -8 -7 -8 4 -20 3 -27 -2 -8 -4 -1 -9 19
-13 17 -4 39 -14 48 -24 16 -16 16 -16 -3 -9 -11 5 -26 9 -32 9 -7 0 -13 4
-13 9 0 4 -6 8 -12 8 -25 0 -40 -18 -40 -44 0 -14 -3 -26 -5 -26 -7 0 -133
102 -133 107 0 2 5 1 10 -2 6 -3 10 -3 10 2 -1 9 -85 73 -96 73 -4 0 6 -10 22
-22 70 -52 50 -47 -26 8 -54 39 -55 39 -80 14 -25 -25 -27 -48 -3 -29 13 11
13 8 -2 -12 -11 -15 -23 -25 -26 -23 -4 2 -10 -3 -13 -12 -3 -8 -2 -13 2 -10
4 2 14 1 21 -4 11 -6 11 -12 -3 -31 -9 -13 -16 -19 -16 -13 0 5 4 15 10 22 6
8 5 7 -4 0 -7 -7 -17 -26 -20 -43 -6 -26 -6 -28 6 -12 12 16 13 15 14 -8 1
-14 1 -25 -1 -25 -12 0 -66 35 -81 52 l-19 23 23 -19 c12 -11 22 -15 21 -10 0
10 -112 94 -124 94 -5 0 11 -14 33 -30 23 -17 42 -33 42 -36 0 -3 -21 10 -47
29 -27 18 -67 44 -90 57 -24 13 -43 27 -43 32 0 5 18 -3 41 -18 22 -14 43 -24
45 -21 2 2 -12 12 -31 23 -19 10 -35 22 -35 26 0 4 -11 6 -24 5 -14 -1 -25 3
-25 8 -1 6 16 10 37 10 25 0 36 -4 34 -13 -1 -8 2 -11 8 -7 6 3 8 11 5 16 -4
5 22 7 64 5 40 -3 71 -1 71 4 0 5 11 5 25 -2 13 -6 22 -15 19 -19z m-838 -9
c9 0 12 5 8 12 -5 7 -3 8 7 3 7 -5 56 -9 109 -10 94 -1 120 -7 120 -26 0 -6
-4 -8 -9 -4 -13 8 -6 -23 13 -60 9 -16 16 -34 16 -40 0 -17 68 -56 74 -42 2 7
4 -1 4 -18 0 -16 -2 -24 -5 -17 -2 6 -9 12 -15 12 -6 0 -5 -7 3 -16 7 -8 20
-13 29 -11 9 2 22 -4 29 -15 6 -10 16 -16 22 -12 8 4 7 10 -2 16 -11 8 -11 9
1 5 8 -2 16 -13 18 -25 2 -12 8 -22 13 -22 6 0 8 4 5 9 -4 5 2 8 11 6 10 -2
25 -4 33 -4 8 -1 20 -9 27 -19 10 -17 8 -19 -23 -17 -19 1 -38 -3 -41 -8 -3
-6 -1 -7 5 -3 7 4 12 3 12 -2 0 -6 7 -13 16 -16 8 -3 12 -2 9 4 -3 6 1 10 9
10 18 0 21 -11 6 -26 -8 -8 -5 -15 7 -25 16 -13 17 -12 4 4 -12 15 -11 17 7
17 16 0 20 -5 17 -20 -2 -11 0 -18 6 -15 16 10 33 -6 18 -17 -10 -7 -6 -8 14
-5 24 4 32 -3 28 -25 0 -5 6 -8 15 -8 11 0 15 6 11 20 -3 12 -1 18 5 14 5 -3
8 -15 5 -25 -3 -11 -1 -19 3 -19 5 0 16 -8 26 -17 14 -14 18 -15 22 -4 4 11 6
11 13 0 4 -7 3 -22 -3 -32 -7 -14 -7 -17 1 -13 6 4 11 2 11 -3 0 -6 7 -11 15
-11 14 0 20 -12 16 -33 -1 -5 8 -6 19 -2 14 4 20 2 18 -7 -2 -7 3 -12 10 -11
6 2 12 -1 12 -6 0 -5 -6 -11 -12 -14 -7 -2 -1 -4 14 -3 14 0 24 4 22 8 -2 4 0
9 6 13 5 3 10 -2 10 -12 1 -17 2 -17 15 1 15 19 15 19 15 -2 0 -12 -4 -22 -10
-22 -5 0 -10 -5 -10 -12 0 -6 3 -9 6 -5 9 8 33 -16 26 -27 -3 -5 7 -7 21 -4
15 3 24 1 21 -3 -3 -5 -11 -9 -19 -9 -8 0 -17 -5 -21 -11 -4 -8 0 -9 15 -4 12
4 21 2 21 -4 0 -6 7 -11 16 -11 10 0 14 6 10 15 -7 20 -4 19 25 -6 21 -18 21
-20 5 -17 -10 1 -21 -3 -24 -11 -2 -8 0 -11 5 -8 6 4 19 0 29 -8 18 -14 18
-14 -2 -15 -11 0 -31 11 -44 25 -25 27 -55 33 -63 13 -3 -7 -6 -2 -6 11 -1 25
-38 71 -58 71 -7 0 -13 5 -13 11 0 5 -4 8 -9 4 -5 -3 -13 4 -16 16 -4 11 -9
18 -12 15 -3 -2 -14 4 -25 14 -11 10 -26 16 -33 14 -7 -3 -16 -1 -20 5 -4 7 1
9 12 6 10 -3 8 0 -4 6 -13 7 -23 16 -23 21 0 4 -8 8 -17 8 -16 0 -16 2 -3 11
12 9 11 10 -7 6 -24 -5 -32 8 -10 16 6 3 2 6 -11 6 -13 1 -21 5 -17 10 3 5 0
13 -6 17 -8 4 -9 3 -5 -4 8 -14 4 -15 -18 -6 -9 3 -14 9 -11 13 2 4 -12 13
-31 20 -23 8 -34 18 -30 26 3 8 -2 19 -10 26 -8 7 -14 8 -13 3 4 -24 -2 -26
-17 -6 -10 15 -22 21 -32 17 -9 -3 -13 -3 -9 1 7 8 -90 78 -131 95 -13 5 -21
13 -18 18 4 5 -4 7 -16 4 -23 -4 -23 -4 -3 13 17 14 18 16 2 10 -11 -3 -41 6
-74 24 -59 32 -81 48 -50 37 11 -4 16 -3 12 3 -3 6 -18 10 -32 10 -20 0 -23 3
-14 14 13 16 -10 41 -31 33 -8 -4 -7 -6 4 -6 9 -1 19 -5 23 -10 3 -5 -7 -8
-22 -7 -16 2 -29 10 -31 20 -2 9 -12 16 -22 16 -22 0 -36 16 -18 22 14 5 2 28
-15 28 -7 0 -6 -4 3 -10 8 -5 11 -10 5 -10 -14 1 -46 26 -40 32 3 2 -3 4 -13
4 -9 -1 -18 4 -19 9 -1 6 9 9 22 7 15 -2 25 2 26 10 0 10 2 10 6 1 2 -7 11
-13 19 -13z m-186 -40 c7 -45 -5 -71 -28 -63 -9 4 -20 11 -24 17 -6 7 -11 6
-18 -4 -6 -10 -10 -11 -10 -2 0 6 -6 12 -14 12 -10 0 -13 -9 -11 -30 2 -16 -1
-33 -7 -36 -7 -4 -8 -3 -4 4 8 13 -20 12 -40 -1 -7 -4 -14 0 -17 7 -4 10 2 16
20 18 15 2 29 9 31 17 3 9 0 11 -7 6 -9 -5 -10 -2 -2 11 5 11 12 27 15 36 3 9
15 18 28 21 13 2 4 3 -19 2 -47 -3 -66 -12 -57 -26 3 -6 12 -3 20 8 13 16 13
15 3 -9 -6 -14 -21 -29 -32 -32 -15 -4 -17 -2 -8 7 20 20 13 22 -59 23 -39 0
-75 5 -82 12 -8 8 -6 11 8 10 10 0 42 3 69 7 76 10 187 20 215 20 21 0 26 -6
30 -35z m-854 -785 c-3 -9 0 -15 9 -15 8 0 15 -5 15 -11 0 -5 4 -8 9 -5 5 3
14 -1 20 -8 10 -12 8 -14 -11 -9 -18 4 -20 3 -8 -6 8 -6 26 -11 40 -12 14 0
19 -3 13 -6 -23 -9 -14 -24 11 -17 13 3 27 1 30 -5 4 -7 1 -8 -8 -5 -11 4 -16
0 -16 -10 0 -9 -6 -16 -14 -16 -8 0 -17 -4 -20 -9 -3 -4 5 -6 17 -4 17 3 23 0
24 -16 1 -11 -2 -23 -8 -26 -5 -4 -9 -11 -9 -17 0 -6 7 -5 17 3 15 13 15 12 3
-7 -15 -25 -35 -14 -38 20 -1 15 1 17 7 7 6 -8 11 -9 15 -3 8 13 -10 26 -24
17 -5 -3 -10 -13 -10 -21 0 -8 -10 -19 -22 -25 l-23 -10 22 5 c28 5 51 -19 27
-28 -9 -3 -22 -2 -29 4 -7 6 -21 7 -30 3 -13 -5 -16 -3 -10 7 5 8 3 11 -6 8
-8 -3 -13 -17 -12 -32 1 -14 -2 -26 -8 -26 -12 0 -12 47 1 55 12 7 11 67 -1
110 -7 24 -7 21 -4 -15 4 -32 2 -41 -5 -30 -13 20 -13 93 0 85 6 -4 7 9 4 34
-5 32 -2 40 13 44 10 3 20 5 22 6 2 0 1 -6 -3 -14z m3900 2 c8 3 14 0 14 -7 0
-7 6 -10 13 -7 8 3 20 1 28 -4 11 -7 11 -9 1 -9 -7 0 -10 -5 -7 -10 5 -8 11
-7 21 1 12 10 13 9 9 -4 -4 -8 -2 -18 4 -21 6 -4 8 -13 4 -21 -7 -20 7 -19 24
3 8 9 11 11 7 3 -4 -9 0 -19 11 -28 11 -7 16 -13 12 -13 -4 0 -1 -13 7 -29 9
-16 13 -31 9 -34 -3 -4 4 -5 16 -2 13 2 25 -3 31 -15 13 -24 13 -33 0 -25 -19
12 -10 -1 22 -31 17 -16 29 -24 26 -19 -3 6 0 15 7 22 10 9 14 8 18 -7 3 -11
0 -21 -7 -24 -6 -3 -4 -5 4 -4 8 1 23 -2 32 -6 25 -11 5 -46 -22 -41 -11 2
-23 -1 -26 -7 -5 -7 -2 -8 7 -3 11 7 12 6 2 -7 -7 -8 -10 -18 -6 -21 3 -4 1
-7 -5 -7 -7 0 -12 9 -12 21 0 16 -4 20 -17 15 -17 -6 -17 -5 0 8 23 18 22 26
-4 26 -14 0 -19 5 -16 14 4 11 1 13 -10 9 -11 -4 -14 -2 -9 5 4 7 2 12 -6 12
-10 0 -10 2 0 8 9 6 7 13 -10 28 -22 19 -23 19 -8 -1 14 -18 14 -19 -2 -7 -10
8 -14 20 -11 29 4 10 2 14 -4 10 -5 -3 -17 2 -25 13 -15 17 -15 19 -1 25 12 4
13 9 5 17 -6 6 -8 17 -5 24 3 8 0 14 -7 14 -6 0 -8 -4 -5 -10 3 -5 1 -10 -4
-10 -6 0 -11 5 -11 10 0 6 -5 10 -11 10 -5 0 -7 -5 -3 -11 4 -7 -1 -7 -15 1
-12 6 -20 17 -18 23 2 7 -7 20 -20 30 -13 10 -22 26 -21 35 2 9 -3 17 -9 18
-7 1 -16 3 -20 4 -5 1 -12 2 -16 1 -5 -1 -5 4 -2 10 5 7 11 7 17 1 6 -6 17 -8
24 -5z m-2254 -390 c7 -2 10 -8 6 -12 -4 -4 -16 -2 -25 6 -16 13 -17 12 -4 -4
8 -10 21 -15 31 -12 10 3 23 -2 31 -12 9 -11 10 -14 2 -9 -7 4 -13 2 -13 -4 0
-6 6 -10 13 -8 6 1 30 -10 52 -25 30 -20 35 -27 20 -27 -116 0 -367 -10 -375
-15 -5 -3 -12 0 -16 6 -3 6 -1 15 6 19 9 5 9 9 1 14 -6 4 -15 5 -20 2 -5 -4
-7 3 -4 14 5 18 7 18 34 5 32 -17 85 -26 95 -16 3 3 9 6 13 6 4 0 23 8 42 17
19 9 42 19 51 22 25 7 11 49 -14 43 -12 -4 -18 -1 -15 6 2 7 11 11 21 9 9 -2
16 3 16 9 0 7 9 3 19 -8 11 -12 26 -23 33 -26z m422 22 c-2 -4 8 -7 23 -6 16
2 39 -3 53 -10 14 -7 31 -13 38 -13 6 0 12 -5 12 -11 0 -5 -6 -7 -12 -3 -9 5
-9 2 1 -9 7 -9 22 -17 32 -17 10 0 21 -5 24 -10 7 -11 74 -11 73 -1 -2 13 23
63 29 58 3 -4 12 1 20 11 12 16 13 16 6 -2 -5 -14 -3 -17 7 -11 9 5 11 4 6 -3
-4 -7 -2 -12 5 -12 21 0 -12 -30 -35 -31 -17 -1 -18 -2 -3 -6 10 -3 24 1 32 7
9 8 20 8 31 2 24 -13 4 -22 -58 -26 -29 -2 -97 -7 -151 -11 -93 -7 -97 -7 -91
11 4 11 12 26 18 34 8 12 8 13 -4 3 -21 -19 -35 -16 -19 4 12 15 12 16 -2 11
-12 -5 -16 -2 -12 11 3 13 -1 18 -18 17 -12 -1 -24 4 -26 10 -2 6 3 11 11 11
8 0 13 -4 10 -8z m979 -82 c4 3 7 1 7 -5 0 -7 3 -11 8 -10 13 5 54 -30 43 -37
-20 -12 -11 -22 17 -19 15 2 19 1 10 -2 -10 -3 -18 -10 -18 -15 0 -6 -6 -7
-12 -3 -14 8 73 -91 103 -118 11 -9 27 -14 37 -11 14 3 23 -4 33 -29 8 -18 14
-36 14 -40 0 -4 6 -13 13 -19 9 -10 12 -10 12 -1 0 7 -5 12 -12 12 -6 0 -9 2
-6 5 10 11 37 -7 31 -21 -3 -8 -1 -14 3 -14 5 0 15 -4 22 -8 16 -11 -1 -62
-20 -62 -9 0 -8 3 2 10 12 8 12 10 -5 10 -11 0 -36 14 -55 31 -19 17 -29 28
-22 24 6 -3 12 -1 12 4 0 6 -8 11 -17 11 -20 0 -75 39 -57 40 6 0 17 -7 24
-15 7 -8 17 -15 23 -15 5 0 -3 10 -19 22 -16 12 -33 28 -37 35 -4 7 -13 13
-19 13 -6 0 -5 -7 3 -17 8 -10 -6 0 -31 22 -25 22 -44 45 -42 52 2 7 -3 10
-10 8 -7 -3 -31 11 -52 31 -36 33 -38 38 -23 49 20 14 12 26 -11 17 -15 -5
-15 -3 -4 10 7 9 22 15 33 13 11 -2 17 0 14 6 -4 5 -1 9 4 9 6 0 11 -4 11 -8
0 -4 9 -8 21 -9 15 -1 18 1 10 10 -12 16 -61 20 -61 6 0 -5 -6 -4 -14 3 -12
11 -11 14 3 20 13 5 13 7 -4 7 -17 1 -17 3 -5 11 10 7 18 5 26 -5 6 -8 14 -12
17 -8z"/>
</g>
</svg>
